# xmcd CD database generated by RipIT
#
# Track frame offsets:
# 150
# 32337
# 50467
# 69841
# 88635
# 120992
# 144668
# 162887
# 178950
# 191511
# 218067
#
# Disc length: 3098 seconds
#
# Revision: 0
# Processed by: cddbd v1.5.2PL0 Copyright (c) Steve Scherf et al.
# Submitted via: RipIT 3.6.0 www.suwald.com/ripit/ripit.html on 2009-06-17 at 17:41
#
DISCID=8f0c180b
DTITLE=Imperiet - Silver Guld och Misär
DYEAR=2009
DGENRE=
TTITLE0=Fred
TTITLE1=CC Cowboys
TTITLE2=Österns röda ros
TTITLE3=Cafe Cosmopolite
TTITLE4=Bibel
TTITLE5=Århundradets brott
TTITLE6=Jag är en idiot
TTITLE7=Fat City
TTITLE8=Kanonsång
TTITLE9=Blå himlen blues
TTITLE10=Var e vargen
EXTD=
EXTT0=
EXTT1=
EXTT2=
EXTT3=
EXTT4=
EXTT5=
EXTT6=
EXTT7=
EXTT8=
EXTT9=
EXTT10=
PLAYORDER=
